<svg xmlns="http://www.w3.org/2000/svg" id="Layer_2" data-name="Layer 2" viewBox="0 0 214.37 213.39"><g id="Layer_1-2" data-name="Layer 1"><g><path d="M111.1,138.04c1.46,1.64,33.09-18.23,39.61-18.94,4.71-.51,7.71,1.08,11.7,3.13,8.34,4.28,32.39,19.81,39.17,25.83,11.03,9.8,3.78,27.23-9.88,26.88-9.17-.23-28.07-16.82-37.36-20.72-3.35-.85-6.68,2.44-9.23,4.32,2.88.87,5.73,1.17,8.54,2.45,12.38,5.65,27.81,20.68,39.9,28.1,9.17,14.78-3.91,30.02-20.13,22.13-10.26-4.99-25.58-20.4-35.28-23.72-14.61-5.01-44.62-3.16-56.37-10.63-4.14-2.63-39.41-37.73-42.11-41.89-8.04-12.31,6.09-26.54,15.72-33.18,7.27-5.01,16.43-5.58,24.67-8.33l21.54-24.46c.8-1.76.98-16.51.36-18.32-.32-.95-5.98-4.79-7.67-7.33-2.16-3.26-3.46-7.49-4.16-11.33,2.28.73,7.35.5,9.01,1.48,2.03,1.2,2.37,7.69,8.58,8.49,7.08.92,6.75-4.06,9.09-4.86s5.71,1.25,8.33.89c-1.35,7.91-6.55,11.88-14.07,13.6l.18,15.28c10.8,1.47,14.22,12.59,8.72,21.45-1.3,2.09-8.84,8.53-8.84,9.16v40.5ZM112.95,77.19c-.58-.91-5.4-1.77-6.4-.21l-21.49,24.52c-8.22,3.3-18.18,3.17-25.45,8.55-1.91,1.41-12.03,11.59-12.75,13.26-1.61,3.69-.37,4.96,1.73,7.76,5.26,6.99,29.48,31.14,36.5,36.5s12.62,5.62,20.41,2.37c14.04-5.85,30.28-19.84,43.88-25.11,2.93-1.14,4.5-1.13,7.45,0,9.37,3.61,22.5,16.44,31.54,19.45,7.34,2.44,13.17-2.97,7.78-8.77-3.19-3.43-33.32-22.92-38.52-25.47s-5.58-1.93-10.88.17l-40.61,21.43c-1.08.49-2.16.6-3.31.28-2.18-.6-29.67-28.47-32.24-31.83-.88-1.16-1.99-2.14-2.27-3.67-.59-6.04,17.54-7.27,22.29-10.34,1.55-1,20.77-21.1,21.54-22.45.88-1.54,1.7-4.98.8-6.41ZM102.1,138.04v-30c-5.43,6.63-11.37,9.3-20,10.01l20,19.99ZM116.1,175.03l27.01,4.5,37.19,24.85c5.89,1.44,10.55-6.3,5.3-10.34-17.78-9.93-32.04-28.33-53.9-27.98l-15.6,8.97Z"></path><path d="M89.1,15.03c-5.65-12.41,15.39-13.7,12.83-1.72-.36,1.69-2.16,2.79-1.83,4.72l16.99,2c-5.62-12.92,14.88-14,12.85-2.73-.34,1.88-3.8,4.22-1.87,5.25l82.26,14.74c7.97,2.31,2.88,11.25-4.62,8.62L1.53,8.12.07,5.48C-.37,2.36,1.29-.05,4.55,0l84.55,15.03Z"></path><path d="M30.91,60.27c31.44-1.72,32.47,46.43,1.64,46.8s-31.03-45.19-1.64-46.8ZM22.44,93.7c13.23,13.24,32.95-7.68,19.71-20.21s-32.74,7.16-19.71,20.21Z"></path></g></g></svg>